<svg xmlns="http://www.w3.org/2000/svg" xmlns:xlink="http://www.w3.org/1999/xlink" contentStyleType="text/css" data-diagram-type="CLASS" height="944px" preserveAspectRatio="none" style="width:1666px;height:944px;background:#FFFFFF;" version="1.1" viewBox="0 0 1666 944" width="1666px" zoomAndPan="magnify"><?plantuml 1.2026.7beta1?><defs/><g><!--class declare_species--><g class="entity" data-qualified-name="declare_species" data-source-line="2" id="ent0001"><rect fill="#F1F1F1" height="96.8906" rx="2.5" ry="2.5" style="stroke:#181818;stroke-width:0.5;" width="217.6182" x="34.52" y="23.3"/><ellipse cx="83.4175" cy="39.3" fill="#ADD1B2" rx="11" ry="11" style="stroke:#181818;stroke-width:1;"/><path d="M86.3862,44.9406 Q85.8081,45.2375 85.1675,45.3781 Q84.5268,45.5344 83.8237,45.5344 Q81.3237,45.5344 79.9956,43.8938 Q78.6831,42.2375 78.6831,39.1125 Q78.6831,35.9875 79.9956,34.3313 Q81.3237,32.675 83.8237,32.675 Q84.5268,32.675 85.1675,32.8313 Q85.8237,32.9875 86.3862,33.2844 L86.3862,36.0031 Q85.7612,35.425 85.1675,35.1594 Q84.5737,34.8781 83.9487,34.8781 Q82.605,34.8781 81.9175,35.9563 Q81.23,37.0188 81.23,39.1125 Q81.23,41.2063 81.9175,42.2844 Q82.605,43.3469 83.9487,43.3469 Q84.5737,43.3469 85.1675,43.0813 Q85.7612,42.8 86.3862,42.2219 L86.3862,44.9406 Z " fill="#000000"/><text fill="#000000" font-family="sans-serif" font-size="14" lengthAdjust="spacing" textLength="111.3232" x="103.9175" y="44.1467">declare_species</text><line style="stroke:#181818;stroke-width:0.5;" x1="35.52" x2="251.1382" y1="55.3" y2="55.3"/><line style="stroke:#181818;stroke-width:0.5;" x1="35.52" x2="251.1382" y1="63.3" y2="63.3"/><g data-visibility-modifier="PUBLIC_METHOD"><ellipse cx="45.52" cy="76.9484" fill="#84BE84" rx="3" ry="3" style="stroke:#038048;stroke-width:1;"/></g><text fill="#000000" font-family="sans-serif" font-size="14" lengthAdjust="spacing" textLength="115.999" x="54.52" y="80.2951">zeros() : Species</text><g data-visibility-modifier="PUBLIC_METHOD"><ellipse cx="45.52" cy="93.2453" fill="#84BE84" rx="3" ry="3" style="stroke:#038048;stroke-width:1;"/></g><text fill="#000000" font-family="sans-serif" font-size="14" lengthAdjust="spacing" textLength="141.251" x="54.52" y="96.592">int_zeros() : Species</text><g data-visibility-modifier="PUBLIC_METHOD"><ellipse cx="45.52" cy="109.5422" fill="#84BE84" rx="3" ry="3" style="stroke:#038048;stroke-width:1;"/></g><text fill="#000000" font-family="sans-serif" font-size="14" lengthAdjust="spacing" textLength="191.6182" x="54.52" y="112.8889">add(name, value) : Species</text></g><!--class TracerSpecies--><g class="entity" data-qualified-name="TracerSpecies" data-source-line="7" id="ent0002"><rect fill="#F1F1F1" height="64.2969" rx="2.5" ry="2.5" style="stroke:#181818;stroke-width:0.5;" width="144.665" x="7" y="286.82"/><ellipse cx="28.224" cy="302.82" fill="#ADD1B2" rx="11" ry="11" style="stroke:#181818;stroke-width:1;"/><path d="M31.1927,308.4606 Q30.6146,308.7575 29.974,308.8981 Q29.3333,309.0544 28.6302,309.0544 Q26.1302,309.0544 24.8021,307.4138 Q23.4896,305.7575 23.4896,302.6325 Q23.4896,299.5075 24.8021,297.8513 Q26.1302,296.195 28.6302,296.195 Q29.3333,296.195 29.974,296.3513 Q30.6302,296.5075 31.1927,296.8044 L31.1927,299.5231 Q30.5677,298.945 29.974,298.6794 Q29.3802,298.3981 28.7552,298.3981 Q27.4115,298.3981 26.724,299.4763 Q26.0365,300.5388 26.0365,302.6325 Q26.0365,304.7263 26.724,305.8044 Q27.4115,306.8669 28.7552,306.8669 Q29.3802,306.8669 29.974,306.6013 Q30.5677,306.32 31.1927,305.7419 L31.1927,308.4606 Z " fill="#000000"/><text fill="#000000" font-family="sans-serif" font-size="14" lengthAdjust="spacing" textLength="98.834" x="43.6071" y="307.6667">TracerSpecies</text><line style="stroke:#181818;stroke-width:0.5;" x1="8" x2="150.665" y1="318.82" y2="318.82"/><g data-visibility-modifier="PUBLIC_FIELD"><ellipse cx="18" cy="332.4684" fill="none" rx="3" ry="3" style="stroke:#038048;stroke-width:1;"/></g><text fill="#000000" font-family="sans-serif" font-size="14" lengthAdjust="spacing" textLength="118.665" x="27" y="335.8151">tracer : jax.Array</text><line style="stroke:#181818;stroke-width:0.5;" x1="8" x2="150.665" y1="343.1169" y2="343.1169"/></g><!--class Species--><g class="entity" data-qualified-name="Species" data-source-line="10" id="ent0003"><rect fill="#F1F1F1" height="80.5938" rx="2.5" ry="2.5" style="stroke:#181818;stroke-width:0.5;" width="208.5879" x="187.04" y="278.67"/><ellipse cx="260.1435" cy="294.67" fill="#ADD1B2" rx="11" ry="11" style="stroke:#181818;stroke-width:1;"/><path d="M263.1123,300.3106 Q262.5341,300.6075 261.8935,300.7481 Q261.2529,300.9044 260.5498,300.9044 Q258.0498,300.9044 256.7216,299.2638 Q255.4091,297.6075 255.4091,294.4825 Q255.4091,291.3575 256.7216,289.7013 Q258.0498,288.045 260.5498,288.045 Q261.2529,288.045 261.8935,288.2013 Q262.5498,288.3575 263.1123,288.6544 L263.1123,291.3731 Q262.4873,290.795 261.8935,290.5294 Q261.2998,290.2481 260.6748,290.2481 Q259.331,290.2481 258.6435,291.3263 Q257.956,292.3888 257.956,294.4825 Q257.956,296.5763 258.6435,297.6544 Q259.331,298.7169 260.6748,298.7169 Q261.2998,298.7169 261.8935,298.4513 Q262.4873,298.17 263.1123,297.5919 L263.1123,300.3106 Z " fill="#000000"/><text fill="#000000" font-family="sans-serif" font-size="14" lengthAdjust="spacing" textLength="53.8809" x="280.6435" y="299.5167">Species</text><line style="stroke:#181818;stroke-width:0.5;" x1="188.04" x2="394.6279" y1="310.67" y2="310.67"/><g data-visibility-modifier="PUBLIC_FIELD"><ellipse cx="198.04" cy="324.3184" fill="none" rx="3" ry="3" style="stroke:#038048;stroke-width:1;"/></g><text fill="#000000" font-family="sans-serif" font-size="14" lengthAdjust="spacing" textLength="118.665" x="207.04" y="327.6651">tracer : jax.Array</text><g data-visibility-modifier="PUBLIC_FIELD"><ellipse cx="198.04" cy="340.6153" fill="none" rx="3" ry="3" style="stroke:#038048;stroke-width:1;"/></g><text fill="#000000" font-family="sans-serif" font-size="14" lengthAdjust="spacing" textLength="182.5879" x="207.04" y="343.962">reactive_tracer : jax.Array</text><line style="stroke:#181818;stroke-width:0.5;" x1="188.04" x2="394.6279" y1="351.2638" y2="351.2638"/></g><!--class Cells--><g class="entity" data-qualified-name="Cells" data-source-line="18" id="ent0006"><rect fill="#F1F1F1" height="96.8906" rx="2.5" ry="2.5" style="stroke:#181818;stroke-width:0.5;" width="355.5469" x="143.56" y="691.64"/><ellipse cx="300.3525" cy="707.64" fill="#ADD1B2" rx="11" ry="11" style="stroke:#181818;stroke-width:1;"/><path d="M303.3212,713.2806 Q302.7431,713.5775 302.1025,713.7181 Q301.4619,713.8744 300.7587,713.8744 Q298.2587,713.8744 296.9306,712.2338 Q295.6181,710.5775 295.6181,707.4525 Q295.6181,704.3275 296.9306,702.6713 Q298.2587,701.015 300.7587,701.015 Q301.4619,701.015 302.1025,701.1713 Q302.7587,701.3275 303.3212,701.6244 L303.3212,704.3431 Q302.6962,703.765 302.1025,703.4994 Q301.5087,703.2181 300.8837,703.2181 Q299.54,703.2181 298.8525,704.2963 Q298.165,705.3588 298.165,707.4525 Q298.165,709.5463 298.8525,710.6244 Q299.54,711.6869 300.8837,711.6869 Q301.5087,711.6869 302.1025,711.4213 Q302.6962,711.14 303.3212,710.5619 L303.3212,713.2806 Z " fill="#000000"/><text fill="#000000" font-family="sans-serif" font-size="14" lengthAdjust="spacing" textLength="33.4619" x="320.8525" y="712.4867">Cells</text><line style="stroke:#181818;stroke-width:0.5;" x1="144.56" x2="498.1069" y1="723.64" y2="723.64"/><g data-visibility-modifier="PUBLIC_FIELD"><ellipse cx="154.56" cy="737.2884" fill="none" rx="3" ry="3" style="stroke:#038048;stroke-width:1;"/></g><text fill="#000000" font-family="sans-serif" font-size="14" lengthAdjust="spacing" textLength="79.126" x="163.56" y="740.6351">n_cells : int</text><g data-visibility-modifier="PUBLIC_FIELD"><ellipse cx="154.56" cy="753.5853" fill="none" rx="3" ry="3" style="stroke:#038048;stroke-width:1;"/></g><text fill="#000000" font-family="sans-serif" font-size="14" lengthAdjust="spacing" textLength="129.1104" x="163.56" y="756.932">centers : jax.Array</text><line style="stroke:#181818;stroke-width:0.5;" x1="144.56" x2="498.1069" y1="764.2338" y2="764.2338"/><g data-visibility-modifier="PUBLIC_METHOD"><ellipse cx="154.56" cy="777.8822" fill="#84BE84" rx="3" ry="3" style="stroke:#038048;stroke-width:1;"/></g><text fill="#000000" font-family="sans-serif" font-size="14" lengthAdjust="spacing" text-decoration="underline" textLength="329.5469" x="163.56" y="781.2289">equally_spaced(length, n_cells, interface_area)</text></g><!--class Advection--><g class="entity" data-qualified-name="Advection" data-source-line="25" id="ent0007"><rect fill="#F1F1F1" height="64.2969" rx="2.5" ry="2.5" style="stroke:#181818;stroke-width:0.5;" width="141.5957" x="274.53" y="525.9"/><ellipse cx="307.4034" cy="541.9" fill="#ADD1B2" rx="11" ry="11" style="stroke:#181818;stroke-width:1;"/><path d="M310.3722,547.5406 Q309.7941,547.8375 309.1534,547.9781 Q308.5128,548.1344 307.8097,548.1344 Q305.3097,548.1344 303.9816,546.4938 Q302.6691,544.8375 302.6691,541.7125 Q302.6691,538.5875 303.9816,536.9313 Q305.3097,535.275 307.8097,535.275 Q308.5128,535.275 309.1534,535.4313 Q309.8097,535.5875 310.3722,535.8844 L310.3722,538.6031 Q309.7472,538.025 309.1534,537.7594 Q308.5597,537.4781 307.9347,537.4781 Q306.5909,537.4781 305.9034,538.5563 Q305.2159,539.6188 305.2159,541.7125 Q305.2159,543.8063 305.9034,544.8844 Q306.5909,545.9469 307.9347,545.9469 Q308.5597,545.9469 309.1534,545.6813 Q309.7472,545.4 310.3722,544.8219 L310.3722,547.5406 Z " fill="#000000"/><text fill="#000000" font-family="sans-serif" font-size="14" lengthAdjust="spacing" textLength="69.877" x="325.3753" y="546.7467">Advection</text><line style="stroke:#181818;stroke-width:0.5;" x1="275.53" x2="415.1257" y1="557.9" y2="557.9"/><g data-visibility-modifier="PUBLIC_FIELD"><ellipse cx="285.53" cy="571.5484" fill="none" rx="3" ry="3" style="stroke:#038048;stroke-width:1;"/></g><text fill="#000000" font-family="sans-serif" font-size="14" lengthAdjust="spacing" textLength="115.5957" x="294.53" y="574.8951">limiter_type : str</text><line style="stroke:#181818;stroke-width:0.5;" x1="275.53" x2="415.1257" y1="582.1969" y2="582.1969"/></g><!--class Dispersion--><g class="entity" data-qualified-name="Dispersion" data-source-line="28" id="ent0008"><rect fill="#F1F1F1" height="64.2969" rx="2.5" ry="2.5" style="stroke:#181818;stroke-width:0.5;" width="299.9434" x="451.36" y="525.9"/><ellipse cx="560.1608" cy="541.9" fill="#ADD1B2" rx="11" ry="11" style="stroke:#181818;stroke-width:1;"/><path d="M563.1295,547.5406 Q562.5514,547.8375 561.9108,547.9781 Q561.2702,548.1344 560.567,548.1344 Q558.067,548.1344 556.7389,546.4938 Q555.4264,544.8375 555.4264,541.7125 Q555.4264,538.5875 556.7389,536.9313 Q558.067,535.275 560.567,535.275 Q561.2702,535.275 561.9108,535.4313 Q562.567,535.5875 563.1295,535.8844 L563.1295,538.6031 Q562.5045,538.025 561.9108,537.7594 Q561.317,537.4781 560.692,537.4781 Q559.3483,537.4781 558.6608,538.5563 Q557.9733,539.6188 557.9733,541.7125 Q557.9733,543.8063 558.6608,544.8844 Q559.3483,545.9469 560.692,545.9469 Q561.317,545.9469 561.9108,545.6813 Q562.5045,545.4 563.1295,544.8219 L563.1295,547.5406 Z " fill="#000000"/><text fill="#000000" font-family="sans-serif" font-size="14" lengthAdjust="spacing" textLength="73.8418" x="580.6608" y="546.7467">Dispersion</text><line style="stroke:#181818;stroke-width:0.5;" x1="452.36" x2="750.3034" y1="557.9" y2="557.9"/><line style="stroke:#181818;stroke-width:0.5;" x1="452.36" x2="750.3034" y1="565.9" y2="565.9"/><g data-visibility-modifier="PUBLIC_METHOD"><ellipse cx="462.36" cy="579.5484" fill="#84BE84" rx="3" ry="3" style="stroke:#038048;stroke-width:1;"/></g><text fill="#000000" font-family="sans-serif" font-size="14" lengthAdjust="spacing" text-decoration="underline" textLength="273.9434" x="471.36" y="582.8951">build(cells, dispersivity, pore_diffusion)</text></g><!--class System--><g class="entity" data-qualified-name="System" data-source-line="33" id="ent0009"><rect fill="#F1F1F1" height="210.9688" rx="2.5" ry="2.5" style="stroke:#181818;stroke-width:0.5;" width="644.6592" x="431" y="213.49"/><ellipse cx="722.9766" cy="229.49" fill="#ADD1B2" rx="11" ry="11" style="stroke:#181818;stroke-width:1;"/><path d="M725.9453,235.1306 Q725.3672,235.4275 724.7266,235.5681 Q724.0859,235.7244 723.3828,235.7244 Q720.8828,235.7244 719.5547,234.0838 Q718.2422,232.4275 718.2422,229.3025 Q718.2422,226.1775 719.5547,224.5213 Q720.8828,222.865 723.3828,222.865 Q724.0859,222.865 724.7266,223.0213 Q725.3828,223.1775 725.9453,223.4744 L725.9453,226.1931 Q725.3203,225.615 724.7266,225.3494 Q724.1328,225.0681 723.5078,225.0681 Q722.1641,225.0681 721.4766,226.1463 Q720.7891,227.2088 720.7891,229.3025 Q720.7891,231.3963 721.4766,232.4744 Q722.1641,233.5369 723.5078,233.5369 Q724.1328,233.5369 724.7266,233.2713 Q725.3203,232.99 725.9453,232.4119 L725.9453,235.1306 Z " fill="#000000"/><text fill="#000000" font-family="sans-serif" font-size="14" lengthAdjust="spacing" textLength="52.2061" x="743.4766" y="234.3367">System</text><line style="stroke:#181818;stroke-width:0.5;" x1="432" x2="1074.6592" y1="245.49" y2="245.49"/><g data-visibility-modifier="PUBLIC_FIELD"><ellipse cx="442" cy="259.1384" fill="none" rx="3" ry="3" style="stroke:#038048;stroke-width:1;"/></g><text fill="#000000" font-family="sans-serif" font-size="14" lengthAdjust="spacing" textLength="78.4629" x="451" y="262.4851">cells : Cells</text><g data-visibility-modifier="PUBLIC_FIELD"><ellipse cx="442" cy="275.4353" fill="none" rx="3" ry="3" style="stroke:#038048;stroke-width:1;"/></g><text fill="#000000" font-family="sans-serif" font-size="14" lengthAdjust="spacing" textLength="58.0576" x="451" y="278.782">bcs : list</text><g data-visibility-modifier="PUBLIC_FIELD"><ellipse cx="442" cy="291.7322" fill="none" rx="3" ry="3" style="stroke:#038048;stroke-width:1;"/></g><text fill="#000000" font-family="sans-serif" font-size="14" lengthAdjust="spacing" textLength="136.1172" x="451" y="295.0789">discharge : callable</text><g data-visibility-modifier="PUBLIC_FIELD"><ellipse cx="442" cy="308.0291" fill="none" rx="3" ry="3" style="stroke:#038048;stroke-width:1;"/></g><text fill="#000000" font-family="sans-serif" font-size="14" lengthAdjust="spacing" textLength="133.5059" x="451" y="311.3757">porosity : jax.Array</text><g data-visibility-modifier="PUBLIC_FIELD"><ellipse cx="442" cy="324.3259" fill="none" rx="3" ry="3" style="stroke:#038048;stroke-width:1;"/></g><text fill="#000000" font-family="sans-serif" font-size="14" lengthAdjust="spacing" textLength="152.373" x="451" y="327.6726">advection : Advection</text><g data-visibility-modifier="PUBLIC_FIELD"><ellipse cx="442" cy="340.6228" fill="none" rx="3" ry="3" style="stroke:#038048;stroke-width:1;"/></g><text fill="#000000" font-family="sans-serif" font-size="14" lengthAdjust="spacing" textLength="159.4072" x="451" y="343.9695">dispersion : Dispersion</text><g data-visibility-modifier="PUBLIC_FIELD"><ellipse cx="442" cy="356.9197" fill="none" rx="3" ry="3" style="stroke:#038048;stroke-width:1;"/></g><text fill="#000000" font-family="sans-serif" font-size="14" lengthAdjust="spacing" textLength="98.9365" x="451" y="360.2664">reactions : list</text><g data-visibility-modifier="PUBLIC_FIELD"><ellipse cx="442" cy="373.2166" fill="none" rx="3" ry="3" style="stroke:#038048;stroke-width:1;"/></g><text fill="#000000" font-family="sans-serif" font-size="14" lengthAdjust="spacing" textLength="192.4521" x="451" y="376.5632">species_is_mobile : Species</text><line style="stroke:#181818;stroke-width:0.5;" x1="432" x2="1074.6592" y1="383.865" y2="383.865"/><g data-visibility-modifier="PUBLIC_METHOD"><ellipse cx="442" cy="397.5134" fill="#84BE84" rx="3" ry="3" style="stroke:#038048;stroke-width:1;"/></g><text fill="#000000" font-family="sans-serif" font-size="14" lengthAdjust="spacing" textLength="108.8418" x="451" y="400.8601">rhs(time, state)</text><g data-visibility-modifier="PUBLIC_METHOD"><ellipse cx="442" cy="413.8103" fill="#84BE84" rx="3" ry="3" style="stroke:#038048;stroke-width:1;"/></g><text fill="#000000" font-family="sans-serif" font-size="14" lengthAdjust="spacing" text-decoration="underline" textLength="618.6592" x="451" y="417.157">build(porosity, discharge, cells, advection, dispersion, bcs, reactions, species_is_mobile)</text></g><!--class make_solver--><g class="entity" data-qualified-name="make_solver" data-source-line="47" id="ent0010"><rect fill="#F1F1F1" height="129.4844" rx="2.5" ry="2.5" style="stroke:#181818;stroke-width:0.5;" width="183.958" x="332.35" y="7"/><ellipse cx="375.9777" cy="23" fill="#ADD1B2" rx="11" ry="11" style="stroke:#181818;stroke-width:1;"/><path d="M378.9465,28.6406 Q378.3684,28.9375 377.7277,29.0781 Q377.0871,29.2344 376.384,29.2344 Q373.884,29.2344 372.5559,27.5938 Q371.2434,25.9375 371.2434,22.8125 Q371.2434,19.6875 372.5559,18.0313 Q373.884,16.375 376.384,16.375 Q377.0871,16.375 377.7277,16.5313 Q378.384,16.6875 378.9465,16.9844 L378.9465,19.7031 Q378.3215,19.125 377.7277,18.8594 Q377.134,18.5781 376.509,18.5781 Q375.1652,18.5781 374.4777,19.6563 Q373.7902,20.7188 373.7902,22.8125 Q373.7902,24.9063 374.4777,25.9844 Q375.1652,27.0469 376.509,27.0469 Q377.134,27.0469 377.7277,26.7813 Q378.3215,26.5 378.9465,25.9219 L378.9465,28.6406 Z " fill="#000000"/><text fill="#000000" font-family="sans-serif" font-size="14" lengthAdjust="spacing" textLength="88.3408" x="396.3395" y="27.8467">make_solver</text><line style="stroke:#181818;stroke-width:0.5;" x1="333.35" x2="515.308" y1="39" y2="39"/><g data-visibility-modifier="PUBLIC_FIELD"><ellipse cx="343.35" cy="52.6484" fill="none" rx="3" ry="3" style="stroke:#038048;stroke-width:1;"/></g><text fill="#000000" font-family="sans-serif" font-size="14" lengthAdjust="spacing" textLength="88.0605" x="352.35" y="55.9951">t_max : float</text><g data-visibility-modifier="PUBLIC_FIELD"><ellipse cx="343.35" cy="68.9453" fill="none" rx="3" ry="3" style="stroke:#038048;stroke-width:1;"/></g><text fill="#000000" font-family="sans-serif" font-size="14" lengthAdjust="spacing" textLength="132.2617" x="352.35" y="72.292">t_points : jax.Array</text><g data-visibility-modifier="PUBLIC_FIELD"><ellipse cx="343.35" cy="85.2422" fill="none" rx="3" ry="3" style="stroke:#038048;stroke-width:1;"/></g><text fill="#000000" font-family="sans-serif" font-size="14" lengthAdjust="spacing" textLength="68.7695" x="352.35" y="88.5889">rtol : float</text><g data-visibility-modifier="PUBLIC_FIELD"><ellipse cx="343.35" cy="101.5391" fill="none" rx="3" ry="3" style="stroke:#038048;stroke-width:1;"/></g><text fill="#000000" font-family="sans-serif" font-size="14" lengthAdjust="spacing" textLength="71.5928" x="352.35" y="104.8857">atol : float</text><line style="stroke:#181818;stroke-width:0.5;" x1="333.35" x2="515.308" y1="112.1875" y2="112.1875"/><g data-visibility-modifier="PUBLIC_METHOD"><ellipse cx="343.35" cy="125.8359" fill="#84BE84" rx="3" ry="3" style="stroke:#038048;stroke-width:1;"/></g><text fill="#000000" font-family="sans-serif" font-size="14" lengthAdjust="spacing" textLength="157.958" x="352.35" y="129.1826">__call__(state, system)</text></g><!--class FixedConcentrationBoundary--><g class="entity" data-qualified-name="FixedConcentrationBoundary" data-source-line="56" id="ent0011"><rect fill="#F1F1F1" height="113.1875" rx="2.5" ry="2.5" style="stroke:#181818;stroke-width:0.5;" width="236.1895" x="786.24" y="501.45"/><ellipse cx="801.24" cy="517.45" fill="#ADD1B2" rx="11" ry="11" style="stroke:#181818;stroke-width:1;"/><path d="M804.2088,523.0906 Q803.6306,523.3875 802.99,523.5281 Q802.3494,523.6844 801.6463,523.6844 Q799.1463,523.6844 797.8181,522.0438 Q796.5056,520.3875 796.5056,517.2625 Q796.5056,514.1375 797.8181,512.4813 Q799.1463,510.825 801.6463,510.825 Q802.3494,510.825 802.99,510.9813 Q803.6463,511.1375 804.2088,511.4344 L804.2088,514.1531 Q803.5838,513.575 802.99,513.3094 Q802.3963,513.0281 801.7713,513.0281 Q800.4275,513.0281 799.74,514.1063 Q799.0525,515.1688 799.0525,517.2625 Q799.0525,519.3563 799.74,520.4344 Q800.4275,521.4969 801.7713,521.4969 Q802.3963,521.4969 802.99,521.2313 Q803.5838,520.95 804.2088,520.3719 L804.2088,523.0906 Z " fill="#000000"/><text fill="#000000" font-family="sans-serif" font-size="14" lengthAdjust="spacing" textLength="204.1895" x="815.24" y="522.2967">FixedConcentrationBoundary</text><line style="stroke:#181818;stroke-width:0.5;" x1="787.24" x2="1021.4295" y1="533.45" y2="533.45"/><g data-visibility-modifier="PUBLIC_FIELD"><ellipse cx="797.24" cy="547.0984" fill="none" rx="3" ry="3" style="stroke:#038048;stroke-width:1;"/></g><text fill="#000000" font-family="sans-serif" font-size="14" lengthAdjust="spacing" textLength="98.8613" x="806.24" y="550.4451">boundary : str</text><g data-visibility-modifier="PUBLIC_FIELD"><ellipse cx="797.24" cy="563.3953" fill="none" rx="3" ry="3" style="stroke:#038048;stroke-width:1;"/></g><text fill="#000000" font-family="sans-serif" font-size="14" lengthAdjust="spacing" textLength="182.8477" x="806.24" y="566.742">species_selector : callable</text><g data-visibility-modifier="PUBLIC_FIELD"><ellipse cx="797.24" cy="579.6922" fill="none" rx="3" ry="3" style="stroke:#038048;stroke-width:1;"/></g><text fill="#000000" font-family="sans-serif" font-size="14" lengthAdjust="spacing" textLength="206.2061" x="806.24" y="583.0389">fixed_concentration : callable</text><g data-visibility-modifier="PUBLIC_FIELD"><ellipse cx="797.24" cy="595.9891" fill="none" rx="3" ry="3" style="stroke:#038048;stroke-width:1;"/></g><text fill="#000000" font-family="sans-serif" font-size="14" lengthAdjust="spacing" textLength="128.3789" x="806.24" y="599.3357">is_active : callable</text><line style="stroke:#181818;stroke-width:0.5;" x1="787.24" x2="1021.4295" y1="606.6375" y2="606.6375"/></g><!--class KineticReaction--><g class="entity" data-qualified-name="KineticReaction" data-source-line="64" id="ent0012"><rect fill="#F1F1F1" height="80.5938" rx="2.5" ry="2.5" style="stroke:#181818;stroke-width:0.5;" width="275.4775" x="1057.59" y="517.75"/><ellipse cx="1136.5451" cy="533.75" fill="#A9DCDF" rx="11" ry="11" style="stroke:#181818;stroke-width:1;"/><path d="M1136.6545,529.0938 L1135.4982,534.1719 L1137.8263,534.1719 L1136.6545,529.0938 Z M1135.1701,526.8594 L1138.1545,526.8594 L1141.5138,539.25 L1139.0607,539.25 L1138.2951,536.1875 L1135.0138,536.1875 L1134.2638,539.25 L1131.8263,539.25 L1135.1701,526.8594 Z " fill="#000000"/><text fill="#000000" font-family="sans-serif" font-size="14" font-style="italic" lengthAdjust="spacing" textLength="109.0674" x="1157.0451" y="538.5967">KineticReaction</text><line style="stroke:#181818;stroke-width:0.5;" x1="1058.59" x2="1332.0675" y1="549.75" y2="549.75"/><line style="stroke:#181818;stroke-width:0.5;" x1="1058.59" x2="1332.0675" y1="557.75" y2="557.75"/><g data-visibility-modifier="PUBLIC_METHOD"><ellipse cx="1068.59" cy="571.3984" fill="#84BE84" rx="3" ry="3" style="stroke:#038048;stroke-width:1;"/></g><text fill="#000000" font-family="sans-serif" font-size="14" lengthAdjust="spacing" textLength="181.8701" x="1077.59" y="574.7451">rate(time, state, system)*</text><g data-visibility-modifier="PUBLIC_METHOD"><ellipse cx="1068.59" cy="587.6953" fill="#84BE84" rx="3" ry="3" style="stroke:#038048;stroke-width:1;"/></g><text fill="#000000" font-family="sans-serif" font-size="14" lengthAdjust="spacing" textLength="249.4775" x="1077.59" y="591.042">stoichiometry(time, state, system)*</text></g><!--class FirstOrderDecay--><g class="entity" data-qualified-name="FirstOrderDecay" data-source-line="68" id="ent0013"><rect fill="#F1F1F1" height="96.8906" rx="2.5" ry="2.5" style="stroke:#181818;stroke-width:0.5;" width="268.4775" x="1061.09" y="691.64"/><ellipse cx="1133.8449" cy="707.64" fill="#ADD1B2" rx="11" ry="11" style="stroke:#181818;stroke-width:1;"/><path d="M1136.8136,713.2806 Q1136.2355,713.5775 1135.5949,713.7181 Q1134.9543,713.8744 1134.2511,713.8744 Q1131.7511,713.8744 1130.423,712.2338 Q1129.1105,710.5775 1129.1105,707.4525 Q1129.1105,704.3275 1130.423,702.6713 Q1131.7511,701.015 1134.2511,701.015 Q1134.9543,701.015 1135.5949,701.1713 Q1136.2511,701.3275 1136.8136,701.6244 L1136.8136,704.3431 Q1136.1886,703.765 1135.5949,703.4994 Q1135.0011,703.2181 1134.3761,703.2181 Q1133.0324,703.2181 1132.3449,704.2963 Q1131.6574,705.3588 1131.6574,707.4525 Q1131.6574,709.5463 1132.3449,710.6244 Q1133.0324,711.6869 1134.3761,711.6869 Q1135.0011,711.6869 1135.5949,711.4213 Q1136.1886,711.14 1136.8136,710.5619 L1136.8136,713.2806 Z " fill="#000000"/><text fill="#000000" font-family="sans-serif" font-size="14" lengthAdjust="spacing" textLength="114.4678" x="1154.3449" y="712.4867">FirstOrderDecay</text><line style="stroke:#181818;stroke-width:0.5;" x1="1062.09" x2="1328.5675" y1="723.64" y2="723.64"/><g data-visibility-modifier="PUBLIC_FIELD"><ellipse cx="1072.09" cy="737.2884" fill="none" rx="3" ry="3" style="stroke:#038048;stroke-width:1;"/></g><text fill="#000000" font-family="sans-serif" font-size="14" lengthAdjust="spacing" textLength="199.0215" x="1081.09" y="740.6351">decay_coefficient : jax.Array</text><line style="stroke:#181818;stroke-width:0.5;" x1="1062.09" x2="1328.5675" y1="747.9369" y2="747.9369"/><g data-visibility-modifier="PUBLIC_METHOD"><ellipse cx="1072.09" cy="761.5853" fill="#84BE84" rx="3" ry="3" style="stroke:#038048;stroke-width:1;"/></g><text fill="#000000" font-family="sans-serif" font-size="14" lengthAdjust="spacing" textLength="174.8701" x="1081.09" y="764.932">rate(time, state, system)</text><g data-visibility-modifier="PUBLIC_METHOD"><ellipse cx="1072.09" cy="777.8822" fill="#84BE84" rx="3" ry="3" style="stroke:#038048;stroke-width:1;"/></g><text fill="#000000" font-family="sans-serif" font-size="14" lengthAdjust="spacing" textLength="242.4775" x="1081.09" y="781.2289">stoichiometry(time, state, system)</text></g><!--class SpatiallyVarying--><g class="entity" data-qualified-name="SpatiallyVarying" data-source-line="73" id="ent0014"><rect fill="#F1F1F1" height="64.2969" rx="2.5" ry="2.5" style="stroke:#181818;stroke-width:0.5;" width="148.3086" x="1121.18" y="865.53"/><ellipse cx="1137.1191" cy="881.53" fill="#ADD1B2" rx="11" ry="11" style="stroke:#181818;stroke-width:1;"/><path d="M1140.0879,887.1706 Q1139.5097,887.4675 1138.8691,887.6081 Q1138.2285,887.7644 1137.5254,887.7644 Q1135.0254,887.7644 1133.6972,886.1238 Q1132.3847,884.4675 1132.3847,881.3425 Q1132.3847,878.2175 1133.6972,876.5613 Q1135.0254,874.905 1137.5254,874.905 Q1138.2285,874.905 1138.8691,875.0613 Q1139.5254,875.2175 1140.0879,875.5144 L1140.0879,878.2331 Q1139.4629,877.655 1138.8691,877.3894 Q1138.2754,877.1081 1137.6504,877.1081 Q1136.3066,877.1081 1135.6191,878.1863 Q1134.9316,879.2488 1134.9316,881.3425 Q1134.9316,883.4363 1135.6191,884.5144 Q1136.3066,885.5769 1137.6504,885.5769 Q1138.2754,885.5769 1138.8691,885.3113 Q1139.4629,885.03 1140.0879,884.4519 L1140.0879,887.1706 Z " fill="#000000"/><text fill="#000000" font-family="sans-serif" font-size="14" lengthAdjust="spacing" textLength="114.2217" x="1151.3278" y="886.3767">SpatiallyVarying</text><line style="stroke:#181818;stroke-width:0.5;" x1="1122.18" x2="1268.4886" y1="897.53" y2="897.53"/><g data-visibility-modifier="PUBLIC_FIELD"><ellipse cx="1132.18" cy="911.1784" fill="none" rx="3" ry="3" style="stroke:#038048;stroke-width:1;"/></g><text fill="#000000" font-family="sans-serif" font-size="14" lengthAdjust="spacing" textLength="122.3086" x="1141.18" y="914.5251">values : jax.Array</text><line style="stroke:#181818;stroke-width:0.5;" x1="1122.18" x2="1268.4886" y1="921.8269" y2="921.8269"/></g><g class="entity" data-qualified-name="GMN25" data-source-line="90" id="ent0026"><path d="M1367.66,530.35 L1367.66,585.7484 L1651.0086,585.7484 L1651.0086,540.35 L1641.0086,530.35 L1367.66,530.35" fill="#FEFFDD" style="stroke:#181818;stroke-width:0.5;"/><path d="M1641.0086,530.35 L1641.0086,540.35 L1651.0086,540.35 L1641.0086,530.35" fill="#FEFFDD" style="stroke:#181818;stroke-width:1;"/><text fill="#000000" font-family="sans-serif" font-size="13" lengthAdjust="spacing" textLength="225.6084" x="1373.66" y="547.4169">For batch reactors, users currently</text><text fill="#000000" font-family="sans-serif" font-size="13" lengthAdjust="spacing" textLength="262.3486" x="1373.66" y="562.5497">must set discharge=0 and dispersion=0</text><text fill="#000000" font-family="sans-serif" font-size="13" lengthAdjust="spacing" textLength="141.5527" x="1373.66" y="577.6825">which is cumbersome</text></g><!--reverse link declare_species to TracerSpecies--><g class="link" data-entity-1="ent0001" data-entity-2="ent0002" data-link-type="extension" data-source-line="14" id="lnk4"><path codeLine="14" d="M126.2958,138.027 C113.4958,187.087 98.49,244.56 87.53,286.57" fill="none" id="declare_species-backto-TracerSpecies" style="stroke:#181818;stroke-width:1;"/><polygon fill="none" points="130.84,120.61,120.4902,136.5122,132.1015,139.5417,130.84,120.61" style="stroke:#181818;stroke-width:1;stroke-linejoin:miter;stroke-miterlimit:10;"/></g><!--reverse link declare_species to Species--><g class="link" data-entity-1="ent0001" data-entity-2="ent0003" data-link-type="extension" data-source-line="15" id="lnk5"><path codeLine="15" d="M181.5203,136.0212 C209.2803,182.0212 241.44,235.3 267.4,278.32" fill="none" id="declare_species-backto-Species" style="stroke:#181818;stroke-width:1;"/><polygon fill="none" points="172.22,120.61,176.3833,139.1213,186.6574,132.9211,172.22,120.61" style="stroke:#181818;stroke-width:1;stroke-linejoin:miter;stroke-miterlimit:10;"/></g><!--reverse link KineticReaction to FirstOrderDecay--><g class="link" data-entity-1="ent0012" data-entity-2="ent0013" data-link-type="extension" data-source-line="77" id="lnk15"><path codeLine="77" d="M1195.33,616.56 C1195.33,643.89 1195.33,662.39 1195.33,691.35" fill="none" id="KineticReaction-backto-FirstOrderDecay" style="stroke:#181818;stroke-width:1;"/><polygon fill="none" points="1195.33,598.56,1189.33,616.56,1201.33,616.56,1195.33,598.56" style="stroke:#181818;stroke-width:1;stroke-linejoin:miter;stroke-miterlimit:10;"/></g><!--link FirstOrderDecay to SpatiallyVarying--><g class="link" data-entity-1="ent0013" data-entity-2="ent0014" data-link-type="dependency" data-source-line="78" id="lnk16"><path codeLine="78" d="M1195.33,788.62 C1195.33,813.46 1195.33,838.19 1195.33,860.17" fill="none" id="FirstOrderDecay-to-SpatiallyVarying" style="stroke:#181818;stroke-width:1;"/><polygon fill="#181818" points="1195.33,865.17,1199.33,856.17,1195.33,860.17,1191.33,856.17,1195.33,865.17" style="stroke:#181818;stroke-width:1;stroke-linejoin:miter;stroke-miterlimit:10;"/><text fill="#000000" font-family="sans-serif" font-size="13" lengthAdjust="spacing" textLength="161.3828" x="1196.33" y="831.5969">decay_coefficient can be</text></g><!--link System to Cells--><g class="link" data-entity-1="ent0009" data-entity-2="ent0006" data-link-type="dependency" data-source-line="80" id="lnk17"><path codeLine="80" d="M430.61,423 C325.63,458.03 233.79,491 226.33,501.45 C184.15,560.6 231.4039,637.2749 273.3639,687.7549" fill="none" id="System-to-Cells" style="stroke:#181818;stroke-width:1;"/><polygon fill="#181818" points="276.56,691.6,273.8831,682.1219,273.3639,687.7549,267.7309,687.2357,276.56,691.6" style="stroke:#181818;stroke-width:1;stroke-linejoin:miter;stroke-miterlimit:10;"/><text fill="#000000" font-family="sans-serif" font-size="13" lengthAdjust="spacing" textLength="29.7832" x="227.33" y="562.6169">uses</text></g><!--link System to Advection--><g class="link" data-entity-1="ent0009" data-entity-2="ent0007" data-link-type="dependency" data-source-line="81" id="lnk18"><path codeLine="81" d="M566.2,424.73 C522.71,449.55 476.74,476.16 434.33,501.45 C421.5,509.11 412.0013,514.9121 399.2513,522.8721" fill="none" id="System-to-Advection" style="stroke:#181818;stroke-width:1;"/><polygon fill="#181818" points="395.01,525.52,404.7627,524.1468,399.2513,522.8721,400.526,517.3607,395.01,525.52" style="stroke:#181818;stroke-width:1;stroke-linejoin:miter;stroke-miterlimit:10;"/><text fill="#000000" font-family="sans-serif" font-size="13" lengthAdjust="spacing" textLength="29.7832" x="514.33" y="467.5169">uses</text></g><!--link System to Dispersion--><g class="link" data-entity-1="ent0009" data-entity-2="ent0008" data-link-type="dependency" data-source-line="82" id="lnk19"><path codeLine="82" d="M686.22,424.65 C662.76,461.24 640.8482,495.4105 624.2082,521.3705" fill="none" id="System-to-Dispersion" style="stroke:#181818;stroke-width:1;"/><polygon fill="#181818" points="621.51,525.58,629.7344,520.1615,624.2082,521.3705,622.9992,515.8444,621.51,525.58" style="stroke:#181818;stroke-width:1;stroke-linejoin:miter;stroke-miterlimit:10;"/><text fill="#000000" font-family="sans-serif" font-size="13" lengthAdjust="spacing" textLength="29.7832" x="665.33" y="467.5169">uses</text></g><!--link System to FixedConcentrationBoundary--><g class="link" data-entity-1="ent0009" data-entity-2="ent0011" data-link-type="dependency" data-source-line="83" id="lnk20"><path codeLine="83" d="M820,424.65 C836.75,450.94 851.4035,473.9431 865.9735,496.8131" fill="none" id="System-to-FixedConcentrationBoundary" style="stroke:#181818;stroke-width:1;"/><polygon fill="#181818" points="868.66,501.03,867.1978,491.2903,865.9735,496.8131,860.4507,495.5887,868.66,501.03" style="stroke:#181818;stroke-width:1;stroke-linejoin:miter;stroke-miterlimit:10;"/><text fill="#000000" font-family="sans-serif" font-size="13" lengthAdjust="spacing" textLength="29.7832" x="848.33" y="467.5169">uses</text></g><!--link System to KineticReaction--><g class="link" data-entity-1="ent0009" data-entity-2="ent0012" data-link-type="dependency" data-source-line="84" id="lnk21"><path codeLine="84" d="M948.81,424.82 C1010.05,457.67 1069.5239,489.5665 1116.9139,514.9865" fill="none" id="System-to-KineticReaction" style="stroke:#181818;stroke-width:1;"/><polygon fill="#181818" points="1121.32,517.35,1115.2797,509.5709,1116.9139,514.9865,1111.4982,516.6207,1121.32,517.35" style="stroke:#181818;stroke-width:1;stroke-linejoin:miter;stroke-miterlimit:10;"/><text fill="#000000" font-family="sans-serif" font-size="13" lengthAdjust="spacing" textLength="29.7832" x="1028.33" y="467.5169">uses</text></g><!--link Dispersion to Cells--><g class="link" data-entity-1="ent0008" data-entity-2="ent0006" data-link-type="dependency" data-source-line="85" id="lnk22"><path codeLine="85" d="M552.24,590.62 C508.95,618.45 449.4358,656.716 399.8958,688.566" fill="none" id="Dispersion-to-Cells" style="stroke:#181818;stroke-width:1;"/><polygon fill="#181818" points="395.69,691.27,405.4236,689.7675,399.8958,688.566,401.0972,683.0382,395.69,691.27" style="stroke:#181818;stroke-width:1;stroke-linejoin:miter;stroke-miterlimit:10;"/><text fill="#000000" font-family="sans-serif" font-size="13" lengthAdjust="spacing" textLength="29.7832" x="462.33" y="657.7069">uses</text></g><!--link make_solver to System--><g class="link" data-entity-1="ent0010" data-entity-2="ent0009" data-link-type="dependency" data-source-line="86" id="lnk23"><path codeLine="86" d="M510.34,136.85 C541.66,160.2 573.9309,184.2522 608.7509,210.2022" fill="none" id="make_solver-to-System" style="stroke:#181818;stroke-width:1;"/><polygon fill="#181818" points="612.76,213.19,607.9339,204.6046,608.7509,210.2022,603.1534,211.0192,612.76,213.19" style="stroke:#181818;stroke-width:1;stroke-linejoin:miter;stroke-miterlimit:10;"/><text fill="#000000" font-family="sans-serif" font-size="13" lengthAdjust="spacing" textLength="40.8027" x="570.33" y="179.5569">solves</text></g><!--link make_solver to Species--><g class="link" data-entity-1="ent0010" data-entity-2="ent0003" data-link-type="dependency" data-source-line="87" id="lnk24"><path codeLine="87" d="M387.74,136.9 C382.19,146.78 376.58,156.89 371.33,166.49 C350.72,204.2 330.2015,243.1664 314.2215,273.8164" fill="none" id="make_solver-to-Species" style="stroke:#181818;stroke-width:1;"/><polygon fill="#181818" points="311.91,278.25,319.6177,272.1188,314.2215,273.8164,312.5239,268.4203,311.91,278.25" style="stroke:#181818;stroke-width:1;stroke-linejoin:miter;stroke-miterlimit:10;"/><text fill="#000000" font-family="sans-serif" font-size="13" lengthAdjust="spacing" textLength="72.814" x="372.33" y="179.5569">initial state</text></g><!--link System to GMN25--><g class="link" data-entity-1="ent0009" data-entity-2="ent0026" data-link-type="association" data-source-line="90" id="lnk27"><path d="M1075.93,415.38 C1165.06,442.47 1261.65,472.48 1350.33,501.45 C1377.71,510.4 1407.56,520.69 1433.93,529.97" fill="none" id="System-GMN25" style="stroke:#181818;stroke-width:1;stroke-dasharray:7,7;"/></g><?plantuml-src ZLN1SjCm4BtxAtHh2WdJSuOoKzef1mxCK8QhHfRMZK2MWYI7cj9_PoLBgcAdG2wETjUxxxrThS_8tHwu1DTmnPmZ0l1fWRh9IXuRWh_Nly0Qjpedsn8UpL9x-eAB2R7Ih8SrEJ0rGEr_IhM-MCR1tXrNyj68qT_OmvihQzbOulyT6UqM6FVo0FHagZd1jxytcsCafqEoipaZ7wmK2T8rA5K0QShZSKjGbyd4GNkmRWdoqNdc9NyYy6DWIerO3268bG9zxtThadAjGogm7VeeGcBdo00H85xjziRw1EDA700v6vsXADbBV8_wSGzOt7bRLBoHoCkwAhXWQGUfn2eL5Ydk8Fsu9bWCg91TDuGt4uoxqNdeStVY8UVCIaI19bFBWq59bxJ10dp7x7q0o543rYgOF5ZCE2oxb8qLejjdqYLTvhMjIDOpOVGnWjHWAXtjJIiLp8VOxjpAop34GI8uFwbNHXibcnYjIHAnu7tMC_n7ATQaOCBiSo1POACEO9F0FVkECnajvGhGdZqWw4uPvhDfRt1cJeoSzKOTnxA5XTBG2KfNaIy2YqrDQDwRGGjcHt9jj90HUe9sAnz0e3MCksN1Ks8JqZQVfs4yaj-1Gf6CNSn15z9INkTTnA1aqtMlFH7kvwnlmreNTe4d4zgFKWFsB_ipH2m0TRSB-rS9hZUIxwJfmTlnXS2d8eXr_fCLO6-0iwA220Sa15qdaRhs9xhq4eh_1L6jIrGix9QlgBlKznb4tCTkjXQRkIXnwSreD7DQcysxPPajMTBaJ9CMcYOjYV3UTTeGWyFRLjclgYi-zztKTtpk_CiGBeFdT5D4LM21iRv_aVYK3GSws4xuq-SZV0vaa6XgLDDeuu6qndlJ4zFbBHfwSukNe6MUxwRbO2pk1goD7n0-M8kyr3Gb_U0ySU2VDyxb1M5QL4lcyY96_jpXk10P4lGjUd1m6i30WE4F?></g></svg>